HIERARCHY
ROOT hip
{
  OFFSET 264.542 84.1921 -3.83653
  CHANNELS 6 Xposition Yposition Zposition Zrotation Xrotation Yrotation
  JOINT abdomen
  {
    OFFSET 0 20.6881 -0.73152
    CHANNELS 3 Zrotation Xrotation Yrotation
    JOINT chest
    {
      OFFSET 0 11.7043 -0.48768
      CHANNELS 3 Zrotation Xrotation Yrotation
      JOINT neck
      {
        OFFSET 0 22.1894 -2.19456
        CHANNELS 3 Zrotation Xrotation Yrotation
        JOINT head
        {
          OFFSET -0.24384 7.07133 1.2192
          CHANNELS 3 Zrotation Xrotation Yrotation
          JOINT leftEye
          {
            OFFSET 4.14528 8.04674 8.04672
            CHANNELS 3 Zrotation Xrotation Yrotation
            End Site
            {
              OFFSET 1 0 0
            }
          }
          JOINT rightEye
          {
            OFFSET -3.6576 8.04674 8.04672
            CHANNELS 3 Zrotation Xrotation Yrotation
            End Site
            {
              OFFSET 1 0 0
            }
          }
        }
      }
      JOINT rCollar
      {
        OFFSET -2.68224 19.2634 -4.8768
        CHANNELS 3 Zrotation Xrotation Yrotation
        JOINT rShldr
        {
          OFFSET -8.77824 -1.95073 1.46304
          CHANNELS 3 Zrotation Xrotation Yrotation
          JOINT rForeArm
          {
            OFFSET -28.1742 -1.7115 0.48768
            CHANNELS 3 Zrotation Xrotation Yrotation
            JOINT rHand
            {
              OFFSET -22.5879 0.773209 7.07136
              CHANNELS 3 Zrotation Xrotation Yrotation
              JOINT rThumb1
              {
                OFFSET -1.2192 -0.487915 3.41376
                CHANNELS 3 Zrotation Xrotation Yrotation
                JOINT rThumb2
                {
                  OFFSET -3.37035 -0.52449 3.41376
                  CHANNELS 3 Zrotation Xrotation Yrotation
                  End Site
                  {
                    OFFSET -1.78271 -1.18214 1.43049
                  }
                }
              }
              JOINT rIndex1
              {
                OFFSET -7.75947 0.938293 5.60832
                CHANNELS 3 Zrotation Xrotation Yrotation
                JOINT rIndex2
                {
                  OFFSET -2.54057 -0.884171 1.56538
                  CHANNELS 3 Zrotation Xrotation Yrotation
                  End Site
                  {
                    OFFSET -1.62519 -0.234802 1.16502
                  }
                }
              }
              JOINT rMid1
              {
                OFFSET -8.24714 1.18213 3.41376
                CHANNELS 3 Zrotation Xrotation Yrotation
                JOINT rMid2
                {
                  OFFSET -3.10165 -0.590103 1.0647
                  CHANNELS 3 Zrotation Xrotation Yrotation
                  End Site
                  {
                    OFFSET -2.48547 -0.328903 0.83742
                  }
                }
              }
              JOINT rRing1
              {
                OFFSET -8.82822 0.546677 1.51678
                CHANNELS 3 Zrotation Xrotation Yrotation
                JOINT rRing2
                {
                  OFFSET -2.60934 -0.819778 -0.0198488
                  CHANNELS 3 Zrotation Xrotation Yrotation
                  End Site
                  {
                    OFFSET -2.33842 -0.294052 0.168128
                  }
                }
              }
              JOINT rPinky1
              {
                OFFSET -8.27202 -0.0477905 -0.4584
                CHANNELS 3 Zrotation Xrotation Yrotation
                JOINT rPinky2
                {
                  OFFSET -1.82734 -0.647385 -0.700984
                  CHANNELS 3 Zrotation Xrotation Yrotation
                  End Site
                  {
                    OFFSET -1.69225 -0.51767 -0.607171
                  }
                }
              }
            }
          }
        }
      }
      JOINT lCollar
      {
        OFFSET 2.68224 19.2634 -4.8768
        CHANNELS 3 Zrotation Xrotation Yrotation
        JOINT lShldr
        {
          OFFSET 8.77824 -1.95073 1.46304
          CHANNELS 3 Zrotation Xrotation Yrotation
          JOINT lForeArm
          {
            OFFSET 28.1742 -1.7115 0.48768
            CHANNELS 3 Zrotation Xrotation Yrotation
            JOINT lHand
            {
              OFFSET 22.5879 0.773209 7.07136
              CHANNELS 3 Zrotation Xrotation Yrotation
              JOINT lThumb1
              {
                OFFSET 1.2192 -0.487915 3.41376
                CHANNELS 3 Zrotation Xrotation Yrotation
                JOINT lThumb2
                {
                  OFFSET 3.37035 -0.52449 3.41376
                  CHANNELS 3 Zrotation Xrotation Yrotation
                  End Site
                  {
                    OFFSET 1.78271 -1.18214 1.43049
                  }
                }
              }
              JOINT lIndex1
              {
                OFFSET 7.75947 0.938293 5.60832
                CHANNELS 3 Zrotation Xrotation Yrotation
                JOINT lIndex2
                {
                  OFFSET 2.54057 -0.884171 1.56538
                  CHANNELS 3 Zrotation Xrotation Yrotation
                  End Site
                  {
                    OFFSET 1.62519 -0.234802 1.16502
                  }
                }
              }
              JOINT lMid1
              {
                OFFSET 8.24714 1.18213 3.41376
                CHANNELS 3 Zrotation Xrotation Yrotation
                JOINT lMid2
                {
                  OFFSET 3.10165 -0.590103 1.0647
                  CHANNELS 3 Zrotation Xrotation Yrotation
                  End Site
                  {
                    OFFSET 2.48547 -0.328903 0.83742
                  }
                }
              }
              JOINT lRing1
              {
                OFFSET 8.82822 0.546677 1.51678
                CHANNELS 3 Zrotation Xrotation Yrotation
                JOINT lRing2
                {
                  OFFSET 2.60934 -0.819778 -0.0198488
                  CHANNELS 3 Zrotation Xrotation Yrotation
                  End Site
                  {
                    OFFSET 2.33842 -0.294052 0.168128
                  }
                }
              }
              JOINT lPinky1
              {
                OFFSET 8.27202 -0.0477905 -0.4584
                CHANNELS 3 Zrotation Xrotation Yrotation
                JOINT lPinky2
                {
                  OFFSET 1.82734 -0.647385 -0.700984
                  CHANNELS 3 Zrotation Xrotation Yrotation
                  End Site
                  {
                    OFFSET 1.69225 -0.51767 -0.607171
                  }
                }
              }
            }
          }
        }
      }
    }
  }
  JOINT rButtock
  {
    OFFSET -8.77824 4.35084 1.2192
    CHANNELS 3 Zrotation Xrotation Yrotation
    JOINT rThigh
    {
      OFFSET 0 -1.70687 -2.19456
      CHANNELS 3 Zrotation Xrotation Yrotation
      JOINT rShin
      {
        OFFSET 0 -36.8199 0.73152
        CHANNELS 3 Zrotation Xrotation Yrotation
        JOINT rFoot
        {
          OFFSET 0.73152 -45.1104 -5.12064
          CHANNELS 3 Zrotation Xrotation Yrotation
          End Site
          {
            OFFSET -1.1221 -3.69964 12.103
          }
        }
      }
    }
  }
  JOINT lButtock
  {
    OFFSET 8.77824 4.35084 1.2192
    CHANNELS 3 Zrotation Xrotation Yrotation
    JOINT lThigh
    {
      OFFSET 0 -1.70687 -2.19456
      CHANNELS 3 Zrotation Xrotation Yrotation
      JOINT lShin
      {
        OFFSET 0 -36.8199 0.73152
        CHANNELS 3 Zrotation Xrotation Yrotation
        JOINT lFoot
        {
          OFFSET -0.73152 -45.1104 -5.12064
          CHANNELS 3 Zrotation Xrotation Yrotation
          End Site
          {
            OFFSET 1.1221 -3.69964 12.103
          }
        }
      }
    }
  }
}
MOTION
Frames:	5
Frame Time:	0.00833333
44.4937 83.3013 -2.9997 7.88891 7.55247 -91.1291 -12.7478 -0.398398 -7.64621 3.68421 6.30496 -2.29829 10.1469 9.03714 1.21198 -4.02196 -3.7597 1.69757 -0 0 0 -0 0 0 -1.58951e-013 2.19162e-012 -7.00716e-015 85.0439 11.643 -1.44505 -6.92331 -2.47107 12.1454 -0.402484 17.7287 2.57543 2.07645e-009 7.22142e-010 -7.81444e-010 3.5739e-009 1.26236e-009 -1.38082e-009 2.07646e-009 7.22145e-010 -7.81445e-010 7.73091 5.47488 0.417314 2.07645e-009 7.22143e-010 -7.81439e-010 2.90554 0.965183 0.102902 2.07645e-009 7.22142e-010 -7.81439e-010 10.2786 0.731801 0.0259123 2.07645e-009 7.22145e-010 -7.81435e-010 2.22167 -0.733487 -0.20892 -1.58925e-013 2.19162e-012 -7.30844e-015 -64.1577 24.0189 -34.1481 19.6591 -12.5874 -37.8634 0.098651 -8.92467 1.26462 1.79813e-009 -3.62748e-010 -5.07388e-010 3.11282e-009 -6.29424e-010 -8.7049e-010 1.79812e-009 -3.62745e-010 -5.07386e-010 -7.73091 5.47488 -0.417314 1.79813e-009 -3.62743e-010 -5.07392e-010 -2.90554 0.965183 -0.102902 1.79813e-009 -3.62745e-010 -5.0739e-010 -10.2786 0.731801 -0.0259123 1.79813e-009 -3.62744e-010 -5.07398e-010 -2.22167 -0.733487 0.20892 -2.03217e-016 0 -3.88251e-019 -5.68471 -34.8537 5.08175 -0.0506489 14.1754 0.300944 -1.92424 -5.12594 -8.02366 2.03217e-016 0 3.88251e-019 -8.68515 6.11579 -2.06721 -0.0176513 16.6391 -0.559627 -2.98052 -11.9945 -14.2272 
45.4666 83.004 -2.96377 7.77677 7.64432 -90.9439 -12.7647 -0.391667 -7.94013 3.83287 6.11516 -2.38865 10.0069 9.32199 1.33195 -4.20887 -3.79785 1.99159 -0 0 0 -0 0 0 -1.48587e-013 2.09985e-012 -2.23632e-016 84.7879 12.1783 -1.65409 -6.93578 -2.47702 12.168 -0.392451 17.5083 2.54139 2.981e-009 1.07113e-009 -2.24157e-009 5.11589e-009 1.86812e-009 -3.9159e-009 2.98101e-009 1.07113e-009 -2.24158e-009 7.73091 5.47488 0.417314 2.981e-009 1.07113e-009 -2.24157e-009 2.90554 0.965183 0.102902 2.981e-009 1.07113e-009 -2.24157e-009 10.2786 0.731801 0.0259123 2.981e-009 1.07113e-009 -2.24156e-009 2.22167 -0.733487 -0.20892 -1.48602e-013 2.09985e-012 -5.25304e-016 -64.8238 23.8515 -33.5241 19.5447 -12.4479 -37.5917 0.0952397 -8.7696 1.2423 2.14725e-009 -7.63425e-010 -8.92379e-010 3.72115e-009 -1.32209e-009 -1.53595e-009 2.14725e-009 -7.63423e-010 -8.92374e-010 -7.73091 5.47488 -0.417314 2.14725e-009 -7.63422e-010 -8.92379e-010 -2.90554 0.965183 -0.102902 2.14725e-009 -7.63423e-010 -8.92381e-010 -10.2786 0.731801 -0.0259123 2.14725e-009 -7.63423e-010 -8.92391e-010 -2.22167 -0.733487 0.20892 -2.03217e-016 0 -3.88251e-019 -5.67022 -35.1967 4.57366 -0.0668879 15.9212 0.332846 -1.63535 -4.86685 -6.46628 2.03217e-016 0 3.88251e-019 -8.78967 6.47434 -2.05735 -0.021977 17.1277 -0.594523 -2.92862 -11.585 -14.541 
46.4798 82.7889 -2.96996 7.68992 7.63522 -90.848 -12.649 -0.368716 -8.08302 3.84746 6.018 -2.43163 9.98345 9.36867 1.39633 -4.34122 -3.72814 2.12522 -0 0 0 -0 0 0 -1.14356e-013 1.69837e-012 4.91992e-015 84.6409 12.1472 -1.73176 -6.90559 -2.46283 12.1131 -0.397102 17.6314 2.56007 3.47924e-009 1.36319e-009 -3.34186e-009 5.96033e-009 2.37342e-009 -5.82342e-009 3.47925e-009 1.3632e-009 -3.34187e-009 7.73091 5.47488 0.417314 3.47924e-009 1.36319e-009 -3.34186e-009 2.90554 0.965183 0.102902 3.47924e-009 1.3632e-009 -3.34186e-009 10.2786 0.731801 0.0259123 3.47925e-009 1.3632e-009 -3.34185e-009 2.22167 -0.733487 -0.20892 -1.14403e-013 1.69836e-012 4.62174e-015 -65.2511 23.8475 -33.1547 19.3931 -12.2672 -37.2263 0.0920923 -8.62389 1.22134 2.26933e-009 -1.10165e-009 -1.17714e-009 3.93595e-009 -1.90687e-009 -2.02889e-009 2.26932e-009 -1.10165e-009 -1.17713e-009 -7.73091 5.47488 -0.417314 2.26933e-009 -1.10165e-009 -1.17713e-009 -2.90554 0.965183 -0.102902 2.26932e-009 -1.10165e-009 -1.17714e-009 -10.2786 0.731801 -0.0259123 2.26933e-009 -1.10165e-009 -1.17715e-009 -2.22167 -0.733487 0.20892 -2.03217e-016 0 -3.88251e-019 -5.59816 -35.5274 4.11552 -0.0815042 17.5026 0.361788 -1.38547 -4.31292 -5.22292 2.03217e-016 0 3.88251e-019 -8.78031 6.79926 -2.07294 -0.0265134 17.6035 -0.628121 -2.8278 -10.9783 -14.8886 
47.5186 82.7152 -2.95006 7.64 7.5032 -90.873 -12.3635 -0.307082 -7.97376 3.65034 6.06996 -2.39603 10.1581 9.01841 1.37632 -4.39673 -3.49885 2.00437 -0 0 0 -0 0 0 -3.01693e-014 6.66913e-013 1.16549e-014 84.6767 11.295 -1.60128 -6.82091 -2.42258 11.9599 -0.423319 18.2031 2.6486 3.42926e-009 1.65313e-009 -4.13369e-009 5.86012e-009 2.87168e-009 -7.19e-009 3.42926e-009 1.65313e-009 -4.1337e-009 7.73091 5.47488 0.417314 3.42926e-009 1.65313e-009 -4.13369e-009 2.90554 0.965183 0.102902 3.42926e-009 1.65313e-009 -4.13368e-009 10.2786 0.731801 0.0259123 3.42926e-009 1.65313e-009 -4.13368e-009 2.22167 -0.733487 -0.20892 -3.02372e-014 6.66911e-013 1.13645e-014 -65.2563 24.117 -33.2473 19.1919 -12.0302 -36.7466 0.089691 -8.50917 1.20485 2.03913e-009 -1.43012e-009 -1.37066e-009 3.54109e-009 -2.47499e-009 -2.36562e-009 2.03913e-009 -1.43012e-009 -1.37065e-009 -7.73091 5.47488 -0.417314 2.03913e-009 -1.43012e-009 -1.37066e-009 -2.90554 0.965183 -0.102902 2.03913e-009 -1.43012e-009 -1.37066e-009 -10.2786 0.731801 -0.0259123 2.03913e-009 -1.43012e-009 -1.37067e-009 -2.22167 -0.733487 0.20892 -2.03217e-016 0 -3.88251e-019 -5.45449 -35.8812 3.73223 -0.0925683 18.8756 0.387601 -1.1819 -3.21679 -4.40684 2.03217e-016 0 3.88251e-019 -8.62282 7.14735 -2.15783 -0.0330954 17.9453 -0.660743 -2.67237 -10.175 -15.3014 
48.5708 82.6932 -2.89358 7.60907 7.28143 -90.9697 -11.9487 -0.217414 -7.70172 3.30939 6.21633 -2.30955 10.4594 8.4099 1.30353 -4.40927 -3.15908 1.72181 -0 0 0 -0 0 0 9.36312e-014 -8.71087e-013 1.96331e-014 84.8317 9.89541 -1.33262 -6.69585 -2.36312 11.7347 -0.467937 19.0856 2.78713 2.99442e-009 1.95191e-009 -4.79396e-009 5.09564e-009 3.38266e-009 -8.32362e-009 2.99442e-009 1.95192e-009 -4.79397e-009 7.73091 5.47488 0.417314 2.99442e-009 1.95191e-009 -4.79396e-009 2.90554 0.965183 0.102902 2.99442e-009 1.95191e-009 -4.79396e-009 10.2786 0.731801 0.0259123 2.99442e-009 1.95192e-009 -4.79395e-009 2.22167 -0.733487 -0.20892 9.35463e-014 -8.71088e-013 1.93536e-014 -65.0037 24.5496 -33.6282 18.9434 -11.7396 -36.1677 0.0875979 -8.40645 1.19011 1.53917e-009 -1.76841e-009 -1.51262e-009 2.6796e-009 -3.06019e-009 -2.61445e-009 1.53916e-009 -1.76841e-009 -1.51261e-009 -7.73091 5.47488 -0.417314 1.53916e-009 -1.76841e-009 -1.51262e-009 -2.90554 0.965183 -0.102902 1.53916e-009 -1.76841e-009 -1.51262e-009 -10.2786 0.731801 -0.0259123 1.53917e-009 -1.76841e-009 -1.51263e-009 -2.22167 -0.733487 0.20892 -2.03217e-016 0 -3.88251e-019 -5.25323 -36.2619 3.40565 -0.102297 20.1964 0.412789 -1.01175 -1.71963 -3.83047 2.03217e-016 0 3.88251e-019 -8.36241 7.48945 -2.29115 -0.041138 18.2403 -0.694642 -2.46602 -9.22286 -15.7617 
